<svg width="100" height="100" viewBox="0 0 100 100" fill="none" xmlns="http://www.w3.org/2000/svg">
    <path fill-rule="evenodd" clip-rule="evenodd" d="M30.2608 13.5849C30.7591 8.87651 34.7428 5.20801 39.5833 5.20801H60.4167C65.2571 5.20801 69.2408 8.87651 69.7392 13.5849C72.9188 13.6496 75.6679 13.8141 78.015 14.2453C81.1733 14.8254 83.8612 15.9306 86.0487 18.1178C88.5567 20.6258 89.6354 23.7836 90.1396 27.534C90.625 31.1464 90.625 35.7394 90.625 41.4377V66.8951C90.625 72.5934 90.625 77.1863 90.1396 80.7988C89.6354 84.5492 88.5567 87.7067 86.0487 90.2151C83.5404 92.723 80.3829 93.8017 76.6325 94.3059C73.02 94.7913 68.4271 94.7913 62.7288 94.7913H37.2714C31.5731 94.7913 26.9801 94.7913 23.3677 94.3059C19.6173 93.8017 16.4595 92.723 13.9515 90.2151C11.4435 87.7067 10.3648 84.5492 9.8605 80.7988C9.37484 77.1863 9.37492 72.5934 9.375 66.8951V41.4377C9.37492 35.7394 9.37484 31.1464 9.8605 27.534C10.3648 23.7836 11.4435 20.6258 13.9515 18.1178C16.1387 15.9306 18.8265 14.8254 21.9848 14.2453C24.3322 13.8141 27.0813 13.6496 30.2608 13.5849ZM30.2707 19.8366C27.2783 19.9005 24.9723 20.0511 23.114 20.3924C20.7523 20.8263 19.3853 21.5228 18.3709 22.5372C17.2177 23.6904 16.4658 25.3095 16.0548 28.3668C15.6316 31.5141 15.625 35.6854 15.625 41.6663V66.6663C15.625 72.6472 15.6316 76.8184 16.0548 79.9659C16.4658 83.0234 17.2177 84.6422 18.3709 85.7955C19.524 86.9488 21.1431 87.7005 24.2005 88.1117C27.3478 88.5347 31.5191 88.5413 37.5 88.5413H62.5C68.4808 88.5413 72.6521 88.5347 75.7996 88.1117C78.8571 87.7005 80.4758 86.9488 81.6292 85.7955C82.7825 84.6422 83.5342 83.0234 83.9454 79.9659C84.3683 76.8184 84.375 72.6472 84.375 66.6663V41.6663C84.375 35.6854 84.3683 31.5141 83.9454 28.3668C83.5342 25.3094 82.7825 23.6904 81.6292 22.5372C80.6146 21.5228 79.2479 20.8263 76.8862 20.3924C75.0275 20.0511 72.7217 19.9005 69.7292 19.8366C69.1908 24.5023 65.2267 28.1247 60.4167 28.1247H39.5833C34.7733 28.1247 30.8093 24.5023 30.2707 19.8366ZM39.5833 11.458C37.8575 11.458 36.4583 12.8571 36.4583 14.583V18.7497C36.4583 20.4755 37.8575 21.8747 39.5833 21.8747H60.4167C62.1425 21.8747 63.5417 20.4755 63.5417 18.7497V14.583C63.5417 12.8571 62.1425 11.458 60.4167 11.458H39.5833ZM26.0417 43.7497C26.0417 42.0238 27.4408 40.6247 29.1667 40.6247H31.25C32.9759 40.6247 34.375 42.0238 34.375 43.7497C34.375 45.4755 32.9759 46.8747 31.25 46.8747H29.1667C27.4408 46.8747 26.0417 45.4755 26.0417 43.7497ZM40.625 43.7497C40.625 42.0238 42.0242 40.6247 43.75 40.6247H70.8333C72.5592 40.6247 73.9583 42.0238 73.9583 43.7497C73.9583 45.4755 72.5592 46.8747 70.8333 46.8747H43.75C42.0242 46.8747 40.625 45.4755 40.625 43.7497ZM26.0417 58.333C26.0417 56.6072 27.4408 55.208 29.1667 55.208H31.25C32.9759 55.208 34.375 56.6072 34.375 58.333C34.375 60.0588 32.9759 61.458 31.25 61.458H29.1667C27.4408 61.458 26.0417 60.0588 26.0417 58.333ZM40.625 58.333C40.625 56.6072 42.0242 55.208 43.75 55.208H70.8333C72.5592 55.208 73.9583 56.6072 73.9583 58.333C73.9583 60.0588 72.5592 61.458 70.8333 61.458H43.75C42.0242 61.458 40.625 60.0588 40.625 58.333ZM26.0417 72.9163C26.0417 71.1905 27.4408 69.7913 29.1667 69.7913H31.25C32.9759 69.7913 34.375 71.1905 34.375 72.9163C34.375 74.6422 32.9759 76.0413 31.25 76.0413H29.1667C27.4408 76.0413 26.0417 74.6422 26.0417 72.9163ZM40.625 72.9163C40.625 71.1905 42.0242 69.7913 43.75 69.7913H70.8333C72.5592 69.7913 73.9583 71.1905 73.9583 72.9163C73.9583 74.6422 72.5592 76.0413 70.8333 76.0413H43.75C42.0242 76.0413 40.625 74.6422 40.625 72.9163Z" fill="#A1CB5F"/>
</svg>