<svg width="100" height="100" viewBox="0 0 100 100" fill="none" xmlns="http://www.w3.org/2000/svg">
    <path d="M50 32.292C47.4112 32.292 45.3125 34.3907 45.3125 36.9795C45.3125 38.7054 43.9133 40.1045 42.1875 40.1045C40.4616 40.1045 39.0625 38.7054 39.0625 36.9795C39.0625 30.9389 43.9596 26.042 50 26.042C56.0404 26.042 60.9375 30.9389 60.9375 36.9795C60.9375 40.9934 58.7733 44.4987 55.5638 46.3978C54.7438 46.8828 54.0671 47.4124 53.6263 47.932C53.1979 48.4362 53.125 48.7653 53.125 48.9587V54.167C53.125 55.8928 51.7258 57.292 50 57.292C48.2742 57.292 46.875 55.8928 46.875 54.167V48.9587C46.875 46.8507 47.7979 45.1403 48.8608 43.8878C49.9108 42.6503 51.2204 41.7053 52.3812 41.0186C53.7683 40.1978 54.6875 38.6943 54.6875 36.9795C54.6875 34.3907 52.5887 32.292 50 32.292Z" fill="#A1CB5F"/>
    <path d="M49.9999 70.8333C52.3012 70.8333 54.1666 68.9679 54.1666 66.6667C54.1666 64.3654 52.3012 62.5 49.9999 62.5C47.6987 62.5 45.8333 64.3654 45.8333 66.6667C45.8333 68.9679 47.6987 70.8333 49.9999 70.8333Z" fill="#A1CB5F"/>
    <path fill-rule="evenodd" clip-rule="evenodd" d="M49.7608 5.20801H50.2391C59.8574 5.20797 67.3949 5.20792 73.2762 5.99863C79.2957 6.80797 84.0462 8.49688 87.7745 12.2253C91.5028 15.9536 93.1916 20.7037 94.0012 26.7235C94.7916 32.6046 94.7916 40.1423 94.7916 49.7605V50.2388C94.7916 59.8572 94.7916 67.3947 94.0012 73.2759C93.1916 79.2955 91.5028 84.0459 87.7745 87.7743C84.0462 91.5026 79.2957 93.1913 73.2762 94.0009C67.3949 94.7913 59.8574 94.7913 50.2391 94.7913H49.7608C40.1425 94.7913 32.6049 94.7913 26.7237 94.0009C20.704 93.1913 15.9539 91.5026 12.2255 87.7743C8.49713 84.0459 6.80821 79.2955 5.99888 73.2759C5.20817 67.3947 5.20821 59.8572 5.20825 50.2388V49.7605C5.20821 40.1423 5.20817 32.6046 5.99888 26.7235C6.80821 20.7037 8.49713 15.9536 12.2255 12.2253C15.9539 8.49688 20.704 6.80797 26.7237 5.99863C32.6049 5.20792 40.1426 5.20797 49.7608 5.20801ZM27.5565 12.1929C22.2298 12.909 19.0185 14.2711 16.6449 16.6447C14.2713 19.0182 12.9093 22.2295 12.1931 27.5563C11.4649 32.9728 11.4583 40.0904 11.4583 49.9997C11.4583 59.9088 11.4649 67.0263 12.1931 72.443C12.9093 77.7697 14.2713 80.9809 16.6449 83.3547C19.0185 85.7284 22.2298 87.0905 27.5565 87.8063C32.9731 88.5347 40.0906 88.5413 49.9999 88.5413C59.9091 88.5413 67.0266 88.5347 72.4433 87.8063C77.7699 87.0905 80.9812 85.7284 83.3549 83.3547C85.7287 80.9809 87.0908 77.7697 87.8066 72.443C88.5349 67.0263 88.5416 59.9088 88.5416 49.9997C88.5416 40.0904 88.5349 32.9728 87.8066 27.5563C87.0908 22.2295 85.7287 19.0182 83.3549 16.6447C80.9812 14.2711 77.7699 12.909 72.4433 12.1929C67.0266 11.4646 59.9091 11.458 49.9999 11.458C40.0906 11.458 32.9731 11.4646 27.5565 12.1929Z" fill="#A1CB5F"/>
</svg>