<svg width="100" height="100" viewBox="0 0 100 100" fill="none" xmlns="http://www.w3.org/2000/svg">
    <path fill-rule="evenodd" clip-rule="evenodd" d="M52.5857 11.5093C52.0282 11.4607 51.4716 11.458 49.9999 11.458C40.0907 11.458 32.9731 11.4647 27.5565 12.1929C22.2298 12.9091 19.0185 14.2711 16.6449 16.6447C14.2713 19.0182 12.9093 22.2296 12.1931 27.5563C11.4649 32.9728 11.4583 40.0904 11.4583 49.9997C11.4583 59.9088 11.4649 67.0263 12.1931 72.443C12.9093 77.7697 14.2713 80.9809 16.6449 83.3547C19.0185 85.7284 22.2298 87.0905 27.5565 87.8063C32.9731 88.5347 40.0907 88.5413 49.9999 88.5413C59.9091 88.5413 67.0266 88.5347 72.4433 87.8063C77.7699 87.0905 80.9812 85.7284 83.3549 83.3547C85.7287 80.9809 87.0908 77.7697 87.8066 72.443C88.5349 67.0263 88.5416 59.9088 88.5416 49.9997C88.5416 48.528 88.5391 47.9713 88.4903 47.4138C88.2516 44.6809 87.1353 41.9863 85.3716 39.8853C85.0124 39.4571 84.6095 39.0506 83.5424 37.9835L62.0162 16.4571C60.9491 15.39 60.5424 14.9872 60.1145 14.6278C58.0132 12.8641 55.3187 11.7479 52.5857 11.5093ZM50.1312 5.20801C51.4295 5.20793 52.2687 5.20789 53.1291 5.28301C57.1408 5.63318 61.0487 7.25193 64.1328 9.8408C64.7945 10.3962 65.3999 11.002 66.3387 11.9408L66.4358 12.0376L88.0587 33.6606C88.9974 34.5995 89.6032 35.2052 90.1587 35.8669C92.7478 38.9511 94.3666 42.8588 94.7166 46.8705C94.7916 47.7309 94.7916 48.5701 94.7916 49.868V50.2388C94.7916 59.8572 94.7916 67.3947 94.0012 73.2759C93.1916 79.2955 91.5028 84.0459 87.7745 87.7743C84.0462 91.5026 79.2957 93.1913 73.2762 94.0009C67.3949 94.7913 59.8574 94.7913 50.2391 94.7913H49.7608C40.1425 94.7913 32.6049 94.7913 26.7237 94.0009C20.704 93.1913 15.9539 91.5026 12.2255 87.7743C8.49713 84.0459 6.80821 79.2955 5.99888 73.2759C5.20817 67.3947 5.20821 59.8572 5.20825 50.2388V49.7605C5.20821 40.1423 5.20817 32.6046 5.99888 26.7235C6.80821 20.7037 8.49713 15.9536 12.2255 12.2253C15.9539 8.49689 20.704 6.80797 26.7237 5.99864C32.6049 5.20793 40.1425 5.20797 49.7608 5.20801H50.1312ZM29.1666 21.8747C30.8925 21.8747 32.2916 23.2738 32.2916 24.9997V37.4997C32.2916 39.2256 30.8925 40.6247 29.1666 40.6247C27.4407 40.6247 26.0416 39.2256 26.0416 37.4997V24.9997C26.0416 23.2738 27.4407 21.8747 29.1666 21.8747ZM41.6666 21.8747C43.3924 21.8747 44.7916 23.2738 44.7916 24.9997V37.4997C44.7916 39.2256 43.3924 40.6247 41.6666 40.6247C39.9407 40.6247 38.5416 39.2256 38.5416 37.4997V24.9997C38.5416 23.2738 39.9407 21.8747 41.6666 21.8747ZM54.1666 21.8747C55.8924 21.8747 57.2916 23.2738 57.2916 24.9997V37.4997C57.2916 39.2256 55.8924 40.6247 54.1666 40.6247C52.4408 40.6247 51.0416 39.2256 51.0416 37.4997V24.9997C51.0416 23.2738 52.4408 21.8747 54.1666 21.8747Z" fill="#A1CB5F"/>
</svg>