<svg width="100" height="100" viewBox="0 0 100 100" fill="none" xmlns="http://www.w3.org/2000/svg">
    <path fill-rule="evenodd" clip-rule="evenodd" d="M51.0416 11.8089C49.1233 11.4829 46.5083 11.4582 41.7908 11.4582C33.8045 11.4582 28.128 11.4648 23.8243 12.0408C19.6081 12.6051 17.1855 13.6636 15.4245 15.4245C13.6611 17.1879 12.6042 19.6031 12.0406 23.7951C11.4649 28.077 11.4583 33.7215 11.4583 41.6668V58.3334C11.4583 66.2784 11.4649 71.9226 12.0406 76.2047C12.6042 80.3968 13.6611 82.8118 15.4245 84.5751C17.1879 86.3389 19.6031 87.3955 23.7951 87.9593C28.077 88.5351 33.7215 88.5418 41.6666 88.5418H58.3332C66.2782 88.5418 71.9228 88.5351 76.2049 87.9593C80.3966 87.3955 82.812 86.3389 84.5753 84.5751C86.3387 82.8118 87.3958 80.3968 87.9591 76.2047C88.5349 71.9226 88.5416 66.2784 88.5416 58.3334V56.5118C88.5416 50.1118 88.4966 47.078 87.8174 44.7918H74.7762C70.0562 44.7918 66.1987 44.7918 63.1537 44.3822C59.9703 43.9543 57.2107 43.028 55.0078 40.8253C52.8049 38.6224 51.8787 35.8627 51.4507 32.6796C51.0416 29.6343 51.0416 25.7771 51.0416 21.0569V11.8089ZM57.2916 15.0393V20.8332C57.2916 25.832 57.2982 29.2668 57.6449 31.8467C57.9799 34.3368 58.5791 35.5578 59.4274 36.4059C60.2753 37.254 61.4962 37.8533 63.9866 38.1881C66.5666 38.5349 70.0012 38.5416 74.9999 38.5416H83.4145C82.1791 37.3434 80.5966 35.9079 78.5416 34.0583L62.0466 19.2129C60.0241 17.3927 58.5191 16.0492 57.2916 15.0393ZM42.3978 5.20811C48.167 5.20657 51.8941 5.20561 55.3245 6.52199C58.7549 7.8384 61.5133 10.322 65.7803 14.1645C65.9274 14.2972 66.0766 14.4314 66.2278 14.5673L82.7224 29.4127C82.8982 29.5707 83.0716 29.7268 83.2428 29.8809C88.1749 34.3169 91.3641 37.1854 93.0795 41.0373C94.7949 44.8889 94.7937 49.1784 94.7916 55.8118C94.7916 56.0422 94.7916 56.2755 94.7916 56.5118V58.5684C94.7916 66.2255 94.7916 72.2909 94.1537 77.0376C93.4966 81.9226 92.1128 85.8764 88.9949 88.9947C85.8766 92.113 81.9224 93.4968 77.0374 94.1534C72.2908 94.7918 66.2258 94.7918 58.5683 94.7918H41.4315C33.7742 94.7918 27.709 94.7918 22.9623 94.1534C18.0773 93.4968 14.1233 92.113 11.0051 88.9947C7.88692 85.8764 6.50309 81.9226 5.84634 77.0376C5.20813 72.2909 5.20817 66.2255 5.20825 58.5684V41.4315C5.20817 33.7742 5.20813 27.709 5.84634 22.9623C6.50309 18.0772 7.88692 14.1233 11.0051 11.0051C14.1257 7.88449 18.0929 6.50215 22.9952 5.84607C27.7617 5.20811 33.857 5.20815 41.5563 5.20824H41.7908C41.9953 5.20824 42.1978 5.20819 42.3978 5.20811Z" fill="#A1CB5F"/>
    <path fill-rule="evenodd" clip-rule="evenodd" d="M37.5539 53.9703C36.3518 52.8432 34.4813 52.8432 33.2793 53.9703L24.9459 61.7828C23.6868 62.9632 23.6231 64.9407 24.8035 66.1999C25.9839 67.4591 27.9615 67.5228 29.2206 66.3424L32.2916 63.4632V77.0836C32.2916 78.8095 33.6907 80.2086 35.4166 80.2086C37.1425 80.2086 38.5416 78.8095 38.5416 77.0836V63.4632L41.6126 66.3424C42.8716 67.5228 44.8495 67.4591 46.0299 66.1999C47.2103 64.9407 47.1462 62.9632 45.8874 61.7828L37.5539 53.9703Z" fill="#A1CB5F"/>
</svg>