<svg width="122" height="38" viewBox="0 0 122 38" fill="none" xmlns="http://www.w3.org/2000/svg">
<path d="M58.5499 0.689934C58.2965 0.466407 58.0006 0.296343 57.6799 0.189934C57.3575 0.0837124 57.0193 0.032992 56.6799 0.0399339C56.3392 0.0382356 56.0009 0.0957583 55.6799 0.209934C55.3654 0.318667 55.0738 0.484813 54.8199 0.699934C54.5555 0.928384 54.344 1.21159 54.1999 1.52993C54.0509 1.89759 53.9859 2.29394 54.0099 2.68993V18.4199L42.3699 1.68993C41.9886 1.19228 41.5042 0.78293 40.9499 0.489934C40.4522 0.231674 39.9006 0.09462 39.3399 0.0899341C38.9287 0.0870252 38.5209 0.165181 38.1399 0.319934C37.7639 0.476371 37.4236 0.707738 37.1399 0.999934C36.8385 1.31283 36.6038 1.68365 36.4499 2.08993C36.279 2.54362 36.1943 3.02518 36.1999 3.50993V24.5099C36.1844 24.9157 36.2632 25.3196 36.4299 25.6899C36.5755 26.0045 36.7869 26.2842 37.0499 26.5099C37.3031 26.7237 37.5951 26.8866 37.9099 26.9899C38.2324 27.0962 38.5705 27.1469 38.9099 27.1399C39.2492 27.1452 39.5871 27.0945 39.9099 26.9899C40.2344 26.8853 40.5339 26.7151 40.7899 26.4899C41.014 26.2579 41.1936 25.9867 41.3199 25.6899C41.4894 25.3241 41.5683 24.9227 41.5499 24.5199V8.82993L53.1399 25.5199C53.5208 26.0063 54.0017 26.4052 54.5499 26.6899C55.0427 26.941 55.5869 27.0745 56.1399 27.0799C56.9756 27.0802 57.7775 26.7494 58.3699 26.1599C58.6733 25.8505 58.9114 25.4832 59.0699 25.0799C59.2535 24.6391 59.3519 24.1674 59.3599 23.6899V2.68993C59.3668 2.30098 59.2883 1.91525 59.1299 1.55993C59.0001 1.23229 58.8024 0.93581 58.5499 0.689934Z" fill="black"/>
<path d="M68.9299 0.69003C68.6345 0.449621 68.2947 0.269549 67.9299 0.16003C67.2421 -0.0709215 66.4977 -0.0709215 65.8099 0.16003C65.4442 0.272314 65.1044 0.455838 64.8099 0.700031C64.5122 0.951898 64.2732 1.26592 64.1099 1.62003C63.9313 2.01568 63.8425 2.44599 63.8499 2.88003V24.22C63.8416 24.6509 63.9305 25.0782 64.1099 25.47C64.2719 25.8138 64.5035 26.1202 64.7899 26.37C65.0828 26.6165 65.4231 26.8003 65.7899 26.91C66.1317 27.0237 66.4897 27.0811 66.8499 27.08C67.2133 27.0806 67.5745 27.0232 67.9199 26.91C68.2857 26.798 68.6256 26.6144 68.9199 26.37C69.2121 26.1194 69.4474 25.8091 69.6099 25.46C69.789 25.0681 69.8778 24.6409 69.8699 24.21V2.88003C69.8773 2.44599 69.7885 2.01568 69.6099 1.62003C69.4533 1.2644 69.2213 0.947069 68.9299 0.69003Z" fill="black"/>
<path d="M94.3899 22.6899L85.4399 12.4899L93.4399 4.20991C93.7884 3.77693 93.9914 3.24499 94.0199 2.68991C94.024 2.31711 93.9346 1.94923 93.7599 1.6199C93.5978 1.31602 93.3808 1.04478 93.1199 0.819905C92.8554 0.596522 92.5543 0.420592 92.2299 0.299905C91.9103 0.178513 91.5718 0.114203 91.2299 0.109905C90.8031 0.110866 90.3822 0.210096 89.9999 0.399905C89.5926 0.619459 89.2484 0.939624 88.9999 1.3299L80.5499 10.5899V2.87991C80.5582 2.449 80.4693 2.02176 80.2899 1.62991C80.1178 1.26445 79.8647 0.942985 79.5499 0.689905C79.2714 0.459931 78.9527 0.283614 78.6099 0.169905C77.9258 -0.0624944 77.184 -0.0624944 76.4999 0.169905C76.1535 0.282266 75.8312 0.458653 75.5499 0.689905C75.2576 0.9366 75.0223 1.24363 74.8599 1.58991C74.6805 1.98176 74.5916 2.409 74.5999 2.83991V24.2699C74.5942 24.6963 74.6794 25.119 74.8499 25.5099C75.0053 25.8605 75.2377 26.1716 75.5299 26.4199C75.805 26.6494 76.1203 26.8257 76.4599 26.9399C77.144 27.1723 77.8858 27.1723 78.5699 26.9399C78.9275 26.8278 79.2603 26.6478 79.5499 26.4099C79.8397 26.1648 80.0748 25.8616 80.2399 25.5199C80.4386 25.1329 80.5447 24.705 80.5499 24.2699V15.0499L89.7099 25.7999C89.9637 26.2251 90.3307 26.5713 90.7699 26.7999C91.1613 26.9953 91.5924 27.0979 92.0299 27.0999C92.4031 27.0983 92.7728 27.0271 93.1199 26.8899C93.4672 26.7564 93.7887 26.5635 94.0699 26.3199C94.3504 26.0763 94.5812 25.7809 94.7499 25.4499C94.9288 25.1002 95.0214 24.7127 95.0199 24.3199C94.9949 23.7221 94.7735 23.1492 94.3899 22.6899Z" fill="black"/>
<path d="M121.83 23.5201L114.22 4.57009C113.973 3.83887 113.666 3.1297 113.3 2.45009C113.017 1.92609 112.652 1.45021 112.22 1.04008C111.837 0.683991 111.379 0.417565 110.88 0.260085C110.38 0.113479 109.861 0.0426917 109.34 0.0500852C108.833 0.0442437 108.328 0.111604 107.84 0.250085C107.346 0.401798 106.892 0.661384 106.51 1.01009C106.075 1.41799 105.711 1.89429 105.43 2.42009C105.059 3.10316 104.745 3.81555 104.49 4.55008L96.91 23.5001C96.8315 23.6716 96.7776 23.8534 96.75 24.0401C96.7393 24.1899 96.7393 24.3403 96.75 24.4901C96.7479 24.8778 96.8442 25.2598 97.03 25.6001C97.2017 25.9118 97.4327 26.187 97.71 26.4101C97.9903 26.635 98.3087 26.8078 98.65 26.9201C98.9725 27.0283 99.3099 27.0856 99.65 27.0901C100.19 27.0902 100.718 26.9339 101.17 26.6401C101.678 26.2947 102.035 25.7692 102.17 25.1701L103.9 20.6901H114.73L116.46 25.1301C116.591 25.728 116.95 26.2515 117.46 26.5901C117.922 26.8888 118.46 27.0485 119.01 27.0501C119.37 27.0511 119.728 26.9937 120.07 26.8801C120.411 26.766 120.729 26.5934 121.01 26.3701C121.298 26.1449 121.537 25.8623 121.71 25.5401C121.894 25.1885 121.986 24.7966 121.98 24.4001C121.978 24.1006 121.927 23.8034 121.83 23.5201ZM105.31 16.6001L109.31 5.80008L113.31 16.6001H105.31Z" fill="black"/>
<path d="M36.2 32.77H36.9799V36.08L39.2799 32.77H40.0299V37.31H39.2399V34L36.95 37.31H36.2V32.77Z" fill="black"/>
<path d="M41.6101 32.77H42.4101V34.69H44.5501V32.77H45.3501V37.31H44.5501V35.39H42.4101V37.3H41.6101V32.77Z" fill="black"/>
<path d="M48.0401 33.51H46.55V32.77H50.23V33.51H48.84V37.31H48.0401V33.51Z" fill="black"/>
<path d="M51.55 32.77H54.92V33.48H52.3V34.69H54.55V35.4H52.3V36.59H54.9V37.3H51.55V32.77Z" fill="black"/>
<path d="M56.26 32.77H58.05C58.2671 32.7413 58.4877 32.7596 58.6971 32.8236C58.9065 32.8876 59.0997 32.9957 59.2637 33.1407C59.4277 33.2858 59.5586 33.4643 59.6477 33.6643C59.7368 33.8643 59.7819 34.0811 59.78 34.3C59.7751 34.5257 59.7225 34.7479 59.6256 34.9518C59.5287 35.1558 59.3897 35.3369 59.2178 35.4833C59.0459 35.6297 58.8449 35.7381 58.6281 35.8013C58.4114 35.8645 58.1837 35.8811 57.96 35.85H57.06V37.31H56.26V32.77ZM57.99 35.13C58.1108 35.15 58.2344 35.1439 58.3527 35.1123C58.471 35.0807 58.5811 35.0242 58.6758 34.9465C58.7705 34.8689 58.8475 34.772 58.9016 34.6622C58.9558 34.5524 58.986 34.4323 58.99 34.31C58.9897 34.1867 58.9619 34.0652 58.9087 33.954C58.8555 33.8429 58.7782 33.745 58.6824 33.6674C58.5867 33.5899 58.4749 33.5346 58.3551 33.5056C58.2353 33.4767 58.1106 33.4747 57.99 33.5H57.06V35.13H57.99Z" fill="black"/>
<path d="M60.98 32.77H61.78V34.69H63.95V32.77H64.75V37.31H63.95V35.39H61.78V37.3H60.98V32.77Z" fill="black"/>
<path d="M66.3301 32.77H69.7001V33.48H67.1201V34.69H69.4001V35.4H67.1201V36.59H69.7201V37.3H66.3201V32.77H66.3301Z" fill="black"/>
<path d="M72.2601 33.51H70.8201V32.77H74.5501V33.51H73.0601V37.31H72.2601V33.51Z" fill="black"/>
<path d="M75.04 34.9299H76.96V35.6899H75.04V34.9299Z" fill="black"/>
<path d="M79.76 32.6899H80.55L82.55 37.2599H81.66L81.2 36.1599H79.05L78.55 37.3099H77.77L79.76 32.6899ZM80.9 35.4599L80.12 33.6899L79.34 35.5099H80.9V35.4599Z" fill="black"/>
<path d="M83.6899 32.77H86.7499V33.49H84.4799V37.31H83.6899V32.77Z" fill="black"/>
<path d="M87.9399 32.77H91.3099V33.48H88.7399V34.69H91.0199V35.4H88.7399V36.59H91.3399V37.3H87.9399V32.77Z" fill="black"/>
<path d="M92.7 32.77H93.4999V34.69H95.67V32.77H96.4699V37.31H95.67V35.39H93.4999V37.3H92.7V32.77Z" fill="black"/>
<path d="M99.1199 33.51H97.6799V32.77H101.36V33.51H99.9199V37.31H99.1199V33.51Z" fill="black"/>
<path d="M102.24 35.0401C102.233 34.733 102.288 34.4277 102.401 34.1422C102.515 33.8567 102.684 33.5968 102.899 33.3777C103.115 33.1587 103.372 32.985 103.655 32.8669C103.939 32.7488 104.243 32.6887 104.55 32.6901C104.88 32.678 105.208 32.7349 105.515 32.8571C105.822 32.9794 106.099 33.1643 106.33 33.4001L105.82 33.9901C105.656 33.8178 105.459 33.6796 105.241 33.5835C105.023 33.4874 104.788 33.4353 104.55 33.4301C104.118 33.4301 103.703 33.6018 103.397 33.9075C103.092 34.2132 102.92 34.6278 102.92 35.0601C102.92 35.4924 103.092 35.907 103.397 36.2127C103.703 36.5183 104.118 36.6901 104.55 36.6901C104.796 36.6868 105.038 36.6326 105.262 36.5311C105.486 36.4296 105.686 36.2828 105.85 36.1001L106.36 36.6201C106.132 36.8815 105.848 37.0889 105.53 37.2273C105.212 37.3656 104.867 37.4315 104.52 37.4201C104.212 37.419 103.908 37.3559 103.626 37.2346C103.343 37.1134 103.087 36.9364 102.875 36.7142C102.662 36.4921 102.496 36.2294 102.387 35.9417C102.278 35.6541 102.228 35.3474 102.24 35.0401Z" fill="black"/>
<path d="M108.87 33.51H107.43V32.77H111.11V33.51H109.67V37.31H108.87V33.51Z" fill="black"/>
<path d="M112.33 32.77H114.33C114.545 32.7552 114.761 32.783 114.965 32.8516C115.169 32.9202 115.358 33.0284 115.52 33.17C115.622 33.2695 115.702 33.3897 115.753 33.5225C115.805 33.6553 115.828 33.7976 115.82 33.94C115.822 34.1521 115.761 34.36 115.646 34.5378C115.53 34.7157 115.365 34.8555 115.17 34.94C115.428 34.9915 115.659 35.1319 115.823 35.3366C115.988 35.5413 116.075 35.7974 116.07 36.06C116.07 36.87 115.4 37.31 114.39 37.31H112.29V32.77H112.33ZM114.21 34.69C114.309 34.7134 114.411 34.7151 114.511 34.6951C114.61 34.675 114.704 34.6335 114.786 34.5736C114.867 34.5137 114.935 34.4367 114.984 34.3481C115.033 34.2594 115.063 34.1611 115.07 34.06C115.063 33.9664 115.035 33.8755 114.989 33.7936C114.943 33.7117 114.88 33.6408 114.804 33.5857C114.728 33.5305 114.641 33.4926 114.548 33.4743C114.456 33.4561 114.361 33.458 114.27 33.48H113.12V34.69H114.21ZM114.44 36.61C114.541 36.635 114.646 36.6378 114.747 36.6179C114.849 36.5981 114.945 36.5562 115.029 36.4952C115.113 36.4342 115.183 36.3556 115.233 36.2648C115.283 36.1741 115.313 36.0734 115.32 35.97C115.32 35.59 115.02 35.36 114.39 35.36H113.12V36.61H114.44Z" fill="black"/>
<path d="M117.21 35.0399C117.204 34.5687 117.339 34.1064 117.597 33.7121C117.855 33.3178 118.225 33.0094 118.659 32.8263C119.093 32.6432 119.572 32.5937 120.035 32.6842C120.497 32.7747 120.922 33.001 121.256 33.3343C121.589 33.6675 121.815 34.0926 121.906 34.5551C121.996 35.0176 121.947 35.4966 121.764 35.9309C121.58 36.3651 121.272 36.7349 120.878 36.9931C120.483 37.2512 120.021 37.3859 119.55 37.3799C119.242 37.3813 118.937 37.3216 118.653 37.2045C118.368 37.0874 118.11 36.9151 117.892 36.6975C117.675 36.48 117.502 36.2215 117.385 35.937C117.268 35.6525 117.209 35.3476 117.21 35.0399ZM121.12 35.0399C121.128 34.8292 121.093 34.6191 121.018 34.4222C120.943 34.2253 120.828 34.0457 120.681 33.8942C120.535 33.7428 120.359 33.6227 120.164 33.5412C119.97 33.4597 119.761 33.4184 119.55 33.4199C119.342 33.421 119.136 33.4643 118.945 33.5473C118.754 33.6302 118.581 33.7511 118.438 33.9025C118.295 34.054 118.184 34.2329 118.112 34.4284C118.041 34.6239 118.009 34.8319 118.02 35.0399C118.008 35.2498 118.038 35.4599 118.109 35.6576C118.18 35.8554 118.29 36.0368 118.433 36.1909C118.576 36.345 118.749 36.4686 118.941 36.5544C119.133 36.6402 119.34 36.6863 119.55 36.6899C119.764 36.6947 119.977 36.6546 120.175 36.5723C120.373 36.49 120.552 36.3672 120.7 36.2119C120.847 36.0566 120.961 35.8721 121.033 35.6703C121.106 35.4685 121.135 35.2538 121.12 35.0399Z" fill="black"/>
<path d="M30.3799 19.78L26.8799 13.17C26.7337 12.9052 26.657 12.6076 26.657 12.305C26.657 12.0025 26.7337 11.7049 26.8799 11.44L28.8799 7.98004C29.3454 7.17582 29.5908 6.26318 29.5915 5.33397C29.5922 4.40475 29.3481 3.49175 28.8838 2.68684C28.4196 1.88193 27.7514 1.21352 26.9467 0.748881C26.142 0.284238 25.2291 0.0397554 24.2999 0.0400393H5.29992C4.3707 0.0397554 3.4578 0.284238 2.6531 0.748881C1.8484 1.21352 1.18028 1.88193 0.715987 2.68684C0.251696 3.49175 0.00761232 4.40475 0.00830224 5.33397C0.00899216 6.26318 0.254431 7.17582 0.719917 7.98004L10.2299 24.46C10.6937 25.266 11.3617 25.9354 12.1667 26.4009C12.9716 26.8664 13.8851 27.1115 14.8149 27.1115C15.7448 27.1115 16.6582 26.8664 17.4631 26.4009C18.2681 25.9354 18.9361 25.266 19.3999 24.46L21.3999 20.99C21.5509 20.7335 21.7635 20.5187 22.0184 20.3651C22.2734 20.2114 22.5626 20.1238 22.8599 20.11L30.3799 19.78ZM14.8099 20.78L6.15992 5.78004H23.4599L14.8099 20.78Z" fill="#69C15B"/>
</svg>
